<svg width="32" height="32" viewBox="0 0 32 32" fill="none" xmlns="http://www.w3.org/2000/svg">
    <path fill-rule="evenodd" clip-rule="evenodd"
          d="M16 13C14.3431 13 13 14.3431 13 16C13 17.6569 14.3431 19 16 19C17.6569 19 19 17.6569 19 16C19 14.3431 17.6569 13 16 13ZM11 16C11 13.2386 13.2386 11 16 11C18.7614 11 21 13.2386 21 16C21 18.7614 18.7614 21 16 21C13.2386 21 11 18.7614 11 16Z"
          fill="white"/>
    <path fill-rule="evenodd" clip-rule="evenodd"
          d="M12.8046 5.02689C12.4477 4.43229 11.6961 4.24733 11.1379 4.5794L11.1234 4.58805L8.81664 5.90793C8.08681 6.32497 7.83502 7.27051 8.25249 7.99305L7.38663 8.49333L8.2518 7.99186C8.96522 9.2227 9.15701 10.5717 8.51972 11.6776C7.88252 12.7834 6.61968 13.2933 5.19996 13.2933C4.35566 13.2933 3.66663 13.9889 3.66663 14.8267V17.1733C3.66663 18.0111 4.35566 18.7067 5.19996 18.7067C6.61968 18.7067 7.88252 19.2166 8.51972 20.3224C9.15693 21.4281 8.96527 22.7769 8.25208 24.0076C7.83519 24.7301 8.08651 25.6748 8.8161 26.0917L11.138 27.4205C11.6961 27.7525 12.4477 27.5677 12.8046 26.9731L12.9479 26.7256C13.661 25.4952 14.736 24.6567 16.0116 24.6567C17.2882 24.6567 18.3599 25.4958 19.0666 26.7277C19.0669 26.7282 19.0672 26.7288 19.0675 26.7293L19.2087 26.9731C19.5655 27.5677 20.3172 27.7527 20.8753 27.4206L20.8899 27.4119L23.1966 26.0921C23.9245 25.6761 24.1802 24.7437 23.7597 24.005C23.0477 22.775 22.8568 21.4273 23.4935 20.3224C24.1307 19.2166 25.3936 18.7067 26.8133 18.7067C27.6576 18.7067 28.3466 18.0111 28.3466 17.1733V14.8267C28.3466 13.9824 27.6511 13.2933 26.8133 13.2933C25.3936 13.2933 24.1307 12.7834 23.4935 11.6776C22.8564 10.572 23.048 9.22323 23.761 7.99258C24.1781 7.27009 23.9268 6.32519 23.1972 5.90824L20.8753 4.57952C20.3171 4.24745 19.5656 4.43229 19.2087 5.02689L19.0654 5.27437C18.3522 6.50478 17.2772 7.34333 16.0016 7.34333C14.7252 7.34333 13.6536 6.50431 12.9469 5.27271C12.9465 5.27203 12.9461 5.27134 12.9457 5.27066L12.8046 5.02689ZM10.1233 2.85588C11.6692 1.94206 13.6301 2.5027 14.526 4.0087L14.5321 4.01892L14.6787 4.27229L14.6809 4.276C15.1742 5.13661 15.6888 5.34333 16.0016 5.34333C16.316 5.34333 16.8344 5.13485 17.3345 4.27229C17.3346 4.27214 17.3344 4.27243 17.3345 4.27229L17.4872 4.00867C18.3831 2.50265 20.3441 1.94206 21.89 2.85589L24.1894 4.17175C25.8863 5.14137 26.4617 7.31615 25.4925 8.99361L25.4918 8.9948C24.9919 9.85729 25.0703 10.4082 25.2264 10.679C25.3825 10.95 25.8197 11.2933 26.8133 11.2933C28.7488 11.2933 30.3466 12.871 30.3466 14.8267V17.1733C30.3466 19.1089 28.769 20.7067 26.8133 20.7067C25.8197 20.7067 25.3825 21.05 25.2264 21.321C25.0703 21.5917 24.9919 22.1427 25.4918 23.0052L25.4949 23.0105C26.4592 24.698 25.8876 26.8575 24.19 27.8279C24.1898 27.828 24.1902 27.8278 24.19 27.8279L21.8899 29.1442C20.344 30.0579 18.3832 29.4973 17.4872 27.9913L17.4811 27.9811L17.3345 27.7277L17.3324 27.724C16.8391 26.8634 16.3245 26.6567 16.0116 26.6567C15.6973 26.6567 15.1788 26.8651 14.6787 27.7277C14.6786 27.7278 14.6788 27.7276 14.6787 27.7277L14.5261 27.9913C13.6301 29.4973 11.6693 30.0579 10.1234 29.1442L7.82382 27.8282C7.82364 27.8281 7.824 27.8283 7.82382 27.8282C6.1274 26.8585 5.55167 24.6837 6.52076 23.0064L6.52145 23.0052C7.02137 22.1427 6.94291 21.5917 6.78686 21.321C6.63073 21.05 6.19357 20.7067 5.19996 20.7067C3.24426 20.7067 1.66663 19.1089 1.66663 17.1733V14.8267C1.66663 12.8911 3.24426 11.2933 5.19996 11.2933C6.19357 11.2933 6.63073 10.95 6.78686 10.679C6.94291 10.4082 7.02137 9.85729 6.52145 8.9948L6.52076 8.99361C5.55167 7.31633 6.12686 5.14183 7.82328 4.17206L10.1233 2.85588Z"
          fill="white"/>
</svg>
